<svg width="26" height="26" viewBox="0 0 26 26" fill="none" xmlns="http://www.w3.org/2000/svg">
<path id="Vector" fill-rule="evenodd" clip-rule="evenodd" d="M10.1754 22.9282V25.4614L9.5631 24.9668C7.90368 23.582 6.35621 22.0684 4.93512 20.4399C1.78668 16.8232 0.190002 13.5767 0.190002 10.7908V10.5146C0.190002 5.00601 4.6694 0.524414 10.1754 0.524414C15.6813 0.524414 20.1607 5.00601 20.1607 10.5146V10.7908C20.1607 11.0247 20.1485 11.2624 20.1255 11.5028L18.1729 9.72056C17.773 5.65806 14.3391 2.47388 10.1754 2.47388C5.74381 2.47388 2.13824 6.0811 2.13824 10.5148V10.7909C2.13824 15.4987 8.20094 21.1979 10.1754 22.9284V22.9282ZM16.1666 21.5283H19.0889V18.604H16.1666V21.5283ZM10.1754 6.37236C10.9947 6.37199 11.7957 6.6146 12.4771 7.06952C13.1586 7.52443 13.6898 8.17122 14.0036 8.92806C14.3174 9.68491 14.3997 10.5178 14.2401 11.3214C14.0805 12.1251 13.6861 12.8633 13.1069 13.4428C12.5277 14.0223 11.7897 14.417 10.9861 14.577C10.1826 14.737 9.34962 14.6551 8.59262 14.3416C7.83562 14.0282 7.18858 13.4973 6.73334 12.8161C6.27809 12.1349 6.03509 11.334 6.03507 10.5146C6.03607 9.4167 6.47253 8.36397 7.24871 7.58742C8.02489 6.81086 9.0774 6.37389 10.1754 6.37236ZM10.1754 8.32163C9.74157 8.32142 9.31747 8.44986 8.95669 8.6907C8.59591 8.93154 8.31465 9.27397 8.1485 9.67467C7.98236 10.0754 7.93877 10.5164 8.02327 10.9418C8.10777 11.3673 8.31655 11.7582 8.6232 12.065C8.92986 12.3718 9.32061 12.5807 9.74605 12.6654C10.1715 12.7502 10.6125 12.7068 11.0133 12.5408C11.414 12.3749 11.7566 12.0938 11.9976 11.7331C12.2387 11.3725 12.3673 10.9484 12.3673 10.5146C12.3668 9.93336 12.1357 9.37602 11.7248 8.96489C11.3139 8.55376 10.7566 8.32242 10.1754 8.32163ZM23.877 20.2036L23.3292 19.7036V22.833C23.3285 23.5335 23.05 24.2051 22.5548 24.7005C22.0595 25.1959 21.388 25.4746 20.6876 25.4756H14.5192C13.8187 25.4746 13.1472 25.1959 12.652 24.7005C12.1567 24.2051 11.8782 23.5335 11.8776 22.833V19.7036L11.3298 20.2036L10.0168 18.7637L17.6031 11.839L25.19 18.7637L23.877 20.2036ZM21.3809 17.9253L17.6031 14.4775L13.826 17.9253V22.833C13.8262 23.0168 13.8993 23.1931 14.0293 23.3231C14.1593 23.4531 14.3356 23.5262 14.5194 23.5264H20.6876C20.8714 23.5262 21.0476 23.453 21.1776 23.3231C21.3076 23.1931 21.3807 23.0168 21.3809 22.833V17.9253Z" fill="#F9F9F9"/>
</svg>
