<svg width="25" height="25" viewBox="0 0 25 25" fill="none" xmlns="http://www.w3.org/2000/svg">
<g id="Vector">
<path d="M15.4571 5.70834C16.4746 5.90684 17.4096 6.40444 18.1426 7.13744C18.8756 7.87044 19.3732 8.80549 19.5717 9.82292M15.4571 1.54167C17.571 1.7765 19.5421 2.7231 21.047 4.22605C22.5518 5.72901 23.5009 7.69897 23.7384 9.8125M22.6967 18.125V21.25C22.6979 21.5401 22.6385 21.8273 22.5222 22.0931C22.406 22.3589 22.2356 22.5975 22.0218 22.7936C21.808 22.9897 21.5556 23.139 21.2808 23.232C21.006 23.3249 20.7148 23.3594 20.4259 23.3333C17.2205 22.985 14.1415 21.8897 11.4363 20.1354C8.91945 18.5361 6.7856 16.4023 5.18629 13.8854C3.42585 11.1679 2.33029 8.07396 1.98837 4.85417C1.96234 4.56612 1.99658 4.2758 2.0889 4.0017C2.18121 3.7276 2.32959 3.47572 2.52459 3.26211C2.71958 3.0485 2.95692 2.87783 3.22149 2.76097C3.48606 2.6441 3.77206 2.58361 4.06129 2.58334H7.18629C7.69182 2.57836 8.18191 2.75738 8.56521 3.08702C8.94851 3.41666 9.19887 3.87443 9.26962 4.37501C9.40152 5.37507 9.64613 6.35701 9.99879 7.30209C10.1389 7.67493 10.1693 8.08012 10.0862 8.46967C10.0031 8.85922 9.81011 9.21679 9.53004 9.50001L8.20712 10.8229C9.68999 13.4308 11.8493 15.5901 14.4571 17.0729L15.78 15.75C16.0633 15.4699 16.4208 15.2769 16.8104 15.1939C17.1999 15.1108 17.6051 15.1411 17.978 15.2813C18.923 15.6339 19.905 15.8785 20.905 16.0104C21.411 16.0818 21.8732 16.3367 22.2035 16.7266C22.5339 17.1164 22.7094 17.6141 22.6967 18.125Z" fill="#46CC80" fill-opacity="0.01"/>
<path d="M15.4571 5.70834C16.4746 5.90684 17.4096 6.40444 18.1426 7.13744C18.8756 7.87044 19.3732 8.80549 19.5717 9.82292M15.4571 1.54167C17.571 1.7765 19.5421 2.7231 21.047 4.22605C22.5518 5.72901 23.5009 7.69897 23.7384 9.8125M22.6967 18.125V21.25C22.6979 21.5401 22.6385 21.8273 22.5222 22.0931C22.406 22.3589 22.2356 22.5975 22.0218 22.7936C21.808 22.9897 21.5556 23.139 21.2808 23.232C21.006 23.3249 20.7148 23.3594 20.4259 23.3333C17.2205 22.985 14.1415 21.8897 11.4363 20.1354C8.91944 18.5361 6.7856 16.4023 5.18629 13.8854C3.42585 11.1679 2.33029 8.07396 1.98837 4.85417C1.96234 4.56612 1.99658 4.2758 2.0889 4.0017C2.18121 3.7276 2.32959 3.47572 2.52459 3.26211C2.71958 3.0485 2.95692 2.87783 3.22149 2.76097C3.48606 2.6441 3.77206 2.58361 4.06129 2.58334H7.18629C7.69182 2.57836 8.18191 2.75738 8.56521 3.08702C8.94851 3.41666 9.19887 3.87443 9.26962 4.37501C9.40152 5.37507 9.64613 6.35701 9.99879 7.30209C10.1389 7.67493 10.1693 8.08012 10.0862 8.46967C10.0031 8.85922 9.81011 9.21679 9.53004 9.50001L8.20712 10.8229C9.68999 13.4308 11.8493 15.5901 14.4571 17.0729L15.78 15.75C16.0633 15.4699 16.4208 15.2769 16.8104 15.1939C17.1999 15.1108 17.6051 15.1411 17.978 15.2813C18.923 15.6339 19.905 15.8785 20.905 16.0104C21.411 16.0818 21.8732 16.3367 22.2035 16.7266C22.5339 17.1164 22.7094 17.6141 22.6967 18.125Z" stroke="white" stroke-width="2.08333" stroke-linecap="round" stroke-linejoin="round"/>
</g>
</svg>
